#!OML:ASF X:\für Bonn\!DataBase\2005_08_10_Bjorn_Final\c3d\bjorn.ASF
:FULLY-SPECIFIED
:DEGREES
184
root -18.4295 19.3193 -2.70615 1439.24 -50.2975 3.79746
lowerback -4.19032 3.87629 2.46718
upperback 7.14743 5.39927 -5.58688
thorax 10.8463 3.06962 -6.70316
lowerneck 0.244877 -10.5554 2.28934
upperneck 8.37836 -14.2664 1.00538
head 2.5307 -7.00738 -0.346468
rclavicle -1.98785e-015 -3.81667e-014
rhumerus 26.4881 -31.2759 -77.7651
rradius 101.086
rwrist -21.8922
rhand -36.8801 20.4457
rfingers 7.12502
rthumb -9.95898 -9.29867
lclavicle -1.98785e-015 -3.81667e-014
lhumerus -30.9119 -4.3036 84.8139
lradius 29.0002
lwrist -12.9603
lhand -26.1342 -8.06576
lfingers 7.12502
lthumb 0.416108 21.9136
rfemur -7.83904 1.83293 13.3765
rtibia 24.6393
rfoot -7.70964 30.9069
rtoes 6.86884
lfemur -24.0167 -5.27708 -18.478
ltibia 27.2196
lfoot 4.3765 -25.7437
ltoes 2.38141
185
root -18.376 19.329 -2.74849 1439.37 -49.5985 3.77586
lowerback -4.0744 3.79407 2.58091
upperback 7.16889 5.26178 -5.36556
thorax 10.7634 3.00016 -6.54855
lowerneck 0.159075 -10.4111 2.38575
upperneck 8.45513 -14.038 0.467213
head 2.52182 -6.90319 -0.525469
rclavicle -3.33958e-014 1.82882e-014
rhumerus 25.5576 -31.3438 -78.6569
rradius 103.376
rwrist -22.3848
rhand -37.4403 20.6463
rfingers 7.12502
rthumb -10.4994 -9.0715
lclavicle -3.33958e-014 1.82882e-014
lhumerus -30.9413 -4.03936 85.303
lradius 28.6691
lwrist -13.3031
lhand -26.3851 -8.15941
lfingers 7.12502
lthumb 0.173829 21.8203
rfemur -8.08009 1.38504 13.3685
rtibia 24.6655
rfoot -7.79321 30.5152
rtoes 6.54447
lfemur -24.2065 -4.68619 -18.7279
ltibia 27.1249
lfoot 4.3027 -25.4324
ltoes 2.56682
186
root -18.322 19.3373 -2.79001 1439.5 -48.8605 3.72218
lowerback -3.90011 3.69008 2.69473
upperback 7.15931 5.0924 -5.12312
thorax 10.6036 2.91202 -6.37834
lowerneck 0.136833 -10.2566 2.42599
upperneck 8.55582 -13.7921 -0.0927799
head 2.51446 -6.79327 -0.700301
rclavicle -4.35338e-014 -2.06736e-014
rhumerus 24.3898 -31.2816 -79.3004
rradius 105.632
rwrist -22.9776
rhand -37.9954 20.8574
rfingers 7.12502
rthumb -11.0348 -8.83254
lclavicle -4.35338e-014 -2.06736e-014
lhumerus -31.0462 -3.86914 85.8385
lradius 28.3575
lwrist -13.425
lhand -26.5808 -8.20114
lfingers 7.12502
lthumb -0.0151777 21.7786
rfemur -8.28862 0.841187 13.3767
rtibia 24.69
rfoot -7.79007 30.2094
rtoes 6.38948
lfemur -24.3572 -4.04472 -18.9727
ltibia 27.0522
lfoot 4.22169 -25.1182
ltoes 2.92702
187
root -18.2697 19.346 -2.82953 1439.61 -48.1473 3.7017
lowerback -3.78389 3.60402 2.80661
upperback 7.1725 4.9504 -4.89903
thorax 10.5121 2.83966 -6.22061
lowerneck 0.0742492 -10.0867 2.51384
upperneck 8.63512 -13.5278 -0.653377
head 2.50623 -6.67347 -0.884766
rclavicle 4.9895e-014 -2.8625e-014
rhumerus 23.1521 -31.1231 -79.865
rradius 107.826
rwrist -23.4423
rhand -38.6086 21.048
rfingers 7.12502
rthumb -11.6263 -8.60943
lclavicle 4.9895e-014 -2.8625e-014
lhumerus -31.1346 -3.7098 86.3386
lradius 28.1176
lwrist -13.3693
lhand -26.6237 -8.28103
lfingers 7.12502
lthumb -0.0566359 21.6987
rfemur -8.48994 0.366807 13.361
rtibia 24.7044
rfoot -7.82867 29.8266
rtoes 6.15619
lfemur -24.4731 -3.56319 -19.2037
ltibia 27.0016
lfoot 3.89672 -24.5887
ltoes 3.22144
188
root -18.2174 19.3547 -2.86916 1439.72 -47.4184 3.68452
lowerback -3.64501 3.50946 2.90622
upperback 7.17047 4.79808 -4.67632
thorax 10.388 2.7604 -6.06013
lowerneck 0.0197979 -9.90806 2.59542
upperneck 8.73228 -13.2493 -1.25078
head 2.50306 -6.54829 -1.0808
rclavicle 3.39922e-014 3.89618e-014
rhumerus 21.7006 -30.8276 -80.3082
rradius 109.914
rwrist -23.7148
rhand -39.2033 21.2276
rfingers 7.12502
rthumb -12.1997 -8.39659
lclavicle 3.39922e-014 3.89618e-014
lhumerus -31.2552 -3.61601 86.8267
lradius 27.9333
lwrist -13.0266
lhand -26.5032 -8.40242
lfingers 7.12502
lthumb 0.0597626 21.5773
rfemur -8.69762 -0.185177 13.336
rtibia 24.7228
rfoot -7.84188 29.512
rtoes 5.94024
lfemur -24.5478 -3.07992 -19.4204
ltibia 26.967
lfoot 3.52076 -24.0624
ltoes 3.56502
189
root -18.1653 19.3636 -2.90702 1439.82 -46.6898 3.66698
lowerback -3.51759 3.42111 3.02401
upperback 7.17446 4.65461 -4.46982
thorax 10.2838 2.68824 -5.92608
lowerneck -0.0281059 -9.70875 2.73122
upperneck 8.79886 -12.9443 -1.84667
head 2.48836 -6.40928 -1.28411
rclavicle 8.94531e-015 -5.56597e-015
rhumerus 20.1066 -30.4115 -80.6719
rradius 111.847
rwrist -23.7104
rhand -39.7997 21.4249
rfingers 7.12502
rthumb -12.7747 -8.16425
lclavicle 8.94531e-015 -5.56597e-015
lhumerus -31.3416 -3.51118 87.2477
lradius 27.7273
lwrist -12.6248
lhand -26.2404 -8.60231
lfingers 7.12502
lthumb 0.313537 21.3772
rfemur -8.88039 -0.730428 13.3082
rtibia 24.7325
rfoot -7.84123 29.2301
rtoes 5.67501
lfemur -24.5822 -2.61247 -19.6283
ltibia 26.9567
lfoot 3.07759 -23.4762
ltoes 3.92011
190
root -18.1153 19.3717 -2.94386 1439.92 -45.962 3.65014
lowerback -3.40314 3.3433 3.16039
upperback 7.17311 4.52708 -4.29796
thorax 10.19 2.62717 -5.83782
lowerneck -0.0921444 -9.50989 2.91107
upperneck 8.87693 -12.6416 -2.44957
head 2.48015 -6.27066 -1.49988
rclavicle -9.26337e-014 4.77083e-014
rhumerus 18.3189 -29.8755 -80.9152
rradius 113.7
rwrist -23.568
rhand -40.4053 21.6462
rfingers 7.12502
rthumb -13.3585 -7.90562
lclavicle -9.26337e-014 4.77083e-014
lhumerus -31.4379 -3.44882 87.5912
lradius 27.5478
lwrist -12.2117
lhand -25.9503 -8.83928
lfingers 7.12502
lthumb 0.593719 21.1396
rfemur -9.05656 -1.22576 13.2768
rtibia 24.7437
rfoot -7.83377 28.9053
rtoes 5.47895
lfemur -24.5895 -2.11981 -19.8309
ltibia 26.97
lfoot 2.4866 -22.8257
ltoes 4.05197
